{"title":"Shitsurakuen aka Lost Paradise (1997)","uid":11386356,"size":2038310510,"categoryP":"video","categoryS":"movies","magnet":"?xt=urn:btih:f947c30ded71cd5ec0b443b54f9f026efaaaed6a&amp;dn=Shitsurakuen+aka+Lost+Paradise+%281997%29&amp;tr=udp%3A%2F%2Ftracker.openbittorrent.com%3A80&amp;tr=udp%3A%2F%2Fopen.demonii.com%3A1337&amp;tr=udp%3A%2F%2Ftracker.coppersurfer.tk%3A6969&amp;tr=udp%3A%2F%2Fexodus.desync.com%3A6969","seeders":0,"leechers":28,"uploader":"cavallone","files":1,"time":1415268386,"description":"Plot: The tragic tale of two lovers whose passion burns so intensely it destroys them. Based on the bestselling novel by Junichi Watanabe, is about the fated love affair between Shoichiro, a middle-aged man who has come to regret devoting his whole life to his work, and Rinko, a beautiful woman trapped in a married life filled with depression and disillusion. A man engaged to Soichiro's daughter, Chika, has fallen in love with Rinko, and Soichiro meets with her to ask her to end the relationship. However, despite their unpleasant first meeting, soon Shoichiro and Rinko find themselves drawn to each other, and find in each other something that had been missing in their lives. Their burning passion heightens, until their yearning for everlasting, perfect love leads to a fateful decision.\n\n\nRip specs:\n\nGeneral\nUnique ID                                : 232986596958801090930736741730752328282 (0xAF47961C8022760F8B4206BBAF3AF25A)\nComplete name                            : Lost Paradise (1997).mkv\nFormat                                   : Matroska\nFormat version                           : Version 4 / Version 2\nFile size                                : 1.90 GiB\nDuration                                 : 1h 59mn\nOverall bit rate                         : 2 277 Kbps\nEncoded date                             : UTC 2014-11-05 02:02:17\nWriting application                      : mkvmerge v6.1.0 ('Old Devil') built on Mar  2 2013 14:32:37\nWriting library                          : libebml v1.3.0 + libmatroska v1.4.0\n\nVideo\nID                                       : 1\nFormat                                   : AVC\nFormat/Info                              : Advanced Video Codec\nFormat profile                           : &lt;a class=&quot;__cf_email__&quot; href=&quot;/cdn-cgi/l/email-protection&quot; data-cfemail=&quot;175f7e707f575b233927&quot;&gt;[email&amp;#160;protected]&lt;/a&gt;&lt;script cf-hash='f9e31' type=&quot;text/javascript&quot;&gt;\n/* &lt;![CDATA[ */!function(){try{var t=&quot;currentScript&quot;in document?document.currentScript:function(){for(var t=document.getElementsByTagName(&quot;script&quot;),e=t.length;e--;)if(t[e].getAttribute(&quot;cf-hash&quot;))return t[e]}();if(t&amp;&amp;t.previousSibling){var e,r,n,i,c=t.previousSibling,a=c.getAttribute(&quot;data-cfemail&quot;);if(a){for(e=&quot;&quot;,r=parseInt(a.substr(0,2),16),n=2;a.length-n;n+=2)i=parseInt(a.substr(n,2),16)^r,e+=String.fromCharCode(i);e=document.createTextNode(e),c.parentNode.replaceChild(e,c)}}}catch(u){}}();/* ]]&gt; */&lt;/script&gt;\nFormat settings, CABAC                   : Yes\nFormat settings, ReFrames                : 16 frames\nCodec ID                                 : V_MPEG4/ISO/AVC\nDuration                                 : 1h 59mn\nBit rate                                 : 2 039 Kbps\nWidth                                    : 716 pixels\nHeight                                   : 480 pixels\nDisplay aspect ratio                     : 16:9\nOriginal display aspect ratio            : 16:9\nFrame rate mode                          : Constant\nFrame rate                               : 23.976 fps\nColor space                              : YUV\nChroma subsampling                       : 4:2:0\nBit depth                                : 8 bits\nScan type                                : Progressive\nBits/(Pixel*Frame)                       : 0.247\nStream size                              : 1.70 GiB (90%)\nWriting library                          : x264 core 130 r2273 b3065e6\nEncoding settings                        : cabac=1 / ref=16 / deblock=1:-3:-3 / analyse=0x3:0x133 / me=umh / subme=11 / psy=1 / psy_rd=1.00:0.00 / mixed_ref=1 / me_range=32 / chroma_me=1 / trellis=2 / 8x8dct=1 / cqm=0 / deadzone=21,11 / fast_pskip=1 / chroma_qp_offset=-2 / threads=3 / lookahead_threads=1 / sliced_threads=0 / nr=0 / decimate=1 / interlaced=0 / bluray_compat=0 / constrained_intra=0 / bframes=14 / b_pyramid=2 / b_adapt=2 / b_bias=0 / direct=3 / weightb=1 / open_gop=0 / weightp=2 / keyint=240 / keyint_min=24 / scenecut=40 / intra_refresh=0 / rc_lookahead=60 / rc=crf / mbtree=1 / crf=16.0 / qcomp=0.70 / qpmin=0 / qpmax=69 / qpstep=4 / ip_ratio=1.40 / aq=1:1.00\nLanguage                                 : Japanese\nDefault                                  : Yes\nForced                                   : No\nColor primaries                          : BT.601 NTSC\nTransfer characteristics                 : BT.709\nMatrix coefficients                      : BT.601\n\nAudio\nID                                       : 2\nFormat                                   : AC-3\nFormat/Info                              : Audio Coding 3\nFormat profile                           : Dolby Digital\nMode extension                           : CM (complete main)\nFormat settings, Endianness              : Big\nCodec ID                                 : A_AC3\nDuration                                 : 1h 59mn\nBit rate mode                            : Constant\nBit rate                                 : 192 Kbps\nChannel(s)                               : 2 channels\nChannel positions                        : Front: L R\nSampling rate                            : 48.0 KHz\nBit depth                                : 16 bits\nCompression mode                         : Lossy\nStream size                              : 164 MiB (8%)\nLanguage                                 : Japanese\nDefault                                  : Yes\nForced                                   : No\n\nText #1\nID                                       : 3\nFormat                                   : VobSub\nMuxing mode                              : zlib\nCodec ID                                 : S_VOBSUB\nCodec ID/Info                            : The same subtitle format used on DVDs\nLanguage                                 : Japanese\nDefault                                  : No\nForced                                   : No\n\nText #2\nID                                       : 4\nFormat                                   : VobSub\nMuxing mode                              : zlib\nCodec ID                                 : S_VOBSUB\nCodec ID/Info                            : The same subtitle format used on DVDs\nLanguage                                 : English\nDefault                                  : No\nForced                                   : No\n\nMenu\n00:00:00.000                             : en:Chapter 1\n00:02:26.938                             : en:Chapter 2\n00:04:33.439                             : en:Chapter 3\n00:12:21.031                             : en:Chapter 4\n00:20:04.620                             : en:Chapter 5\n00:24:00.689                             : en:Chapter 6\n00:28:18.905                             : en:Chapter 7\n00:32:42.001                             : en:Chapter 8\n00:37:20.863                             : en:Chapter 9\n00:41:18.434                             : en:Chapter 10\n00:46:28.702                             : en:Chapter 11\n00:56:07.989                             : en:Chapter 12\n00:58:04.981                             : en:Chapter 13\n01:00:15.528                             : en:Chapter 14\n01:05:34.221                             : en:Chapter 15\n01:09:16.610                             : en:Chapter 16\n01:13:07.299                             : en:Chapter 17\n01:17:20.636                             : en:Chapter 18\n01:24:25.226                             : en:Chapter 19\n01:28:20.378                             : en:Chapter 20\n01:32:22.245                             : en:Chapter 21\n01:36:23.068                             : en:Chapter 22\n01:43:27.868                             : en:Chapter 23\n01:46:56.451                             : en:Chapter 24\n01:59:09.350                             : en:Chapter 25\n\n\nMy rip","torrent":{"xt":"urn:btih:f947c30ded71cd5ec0b443b54f9f026efaaaed6a","amp;dn":"Shitsurakuen+aka+Lost+Paradise+%281997%29","amp;tr":["udp%3A%2F%2Ftracker.openbittorrent.com%3A80","udp%3A%2F%2Fopen.demonii.com%3A1337","udp%3A%2F%2Ftracker.coppersurfer.tk%3A6969","udp%3A%2F%2Fexodus.desync.com%3A6969"],"infoHash":"f947c30ded71cd5ec0b443b54f9f026efaaaed6a","infoHashBuffer":{"type":"Buffer","data":[249,71,195,13,237,113,205,94,192,180,67,181,79,159,2,110,250,170,237,106]},"announce":[],"urlList":[]}}